<svg xmlns="http://www.w3.org/2000/svg" viewBox="0 0 64 64">
  <path d="M32 6C18.2 6 7 17.2 7 31s11.2 25 25 25c7.3 0 13.8-2.7 18.4-7.2 1.2-1.2 1.2-3.1 0-4.2-1.2-1.2-3.1-1.2-4.2 0C42.9 48 37.8 50 32 50 21.5 50 13 41.5 13 31S21.5 12 32 12s19 8.5 19 19v2.3c0 2.5-1.5 4.7-3.6 4.7-2 0-3.4-1.7-3.4-4.1V26c0-1.7-1.3-3-3-3s-3 1.3-3 3v1.1c-1.9-2.1-4.7-3.5-7.9-3.5-5.9 0-10.6 4.8-10.6 10.8S24.2 45 30.1 45c3.6 0 6.7-1.8 8.7-4.5 1.6 2.5 4.3 4.1 7.4 4.1 5.5 0 9.6-5 9.6-11.3V31C57 17.2 45.8 6 32 6zm-1.9 33c-2.6 0-4.7-2.1-4.7-4.7s2.1-4.7 4.7-4.7c2.6 0 4.7 2.1 4.7 4.7S32.7 39 30.1 39z"/>
</svg>
